{"accessors" : [{"bufferView" : 0, "byteOffset" : 0, "componentType" : 5123, "count" : 18, "type" : "SCALAR", "max" : [17], "min" : [0]}, {"bufferView" : 1, "byteOffset" : 0, "componentType" : 5126, "count" : 18, "type" : "VEC3", "max" : [7.445335865020752, 30.762109756469727, 15.900114059448242], "min" : [-7.304750442504883, -30.302661895751953, 15.86463451385498], "name" : "POSITION"}, {"bufferView" : 1, "byteOffset" : 12, "componentType" : 5126, "count" : 18, "type" : "VEC3", "max" : [0, 0.0014209297951310873, 1.0000042915344238], "min" : [0, 0, 1.0000033378601074], "name" : "NORMAL"}, {"bufferView" : 1, "byteOffset" : 24, "componentType" : 5126, "count" : 18, "type" : "VEC2", "max" : [0.7250862121582031, -0.6506906747817993], "min" : [0.590202808380127, -0.923020601272583], "name" : "TEXCOORD_0"}, {"bufferView" : 0, "byteOffset" : 36, "componentType" : 5123, "count" : 198, "type" : "SCALAR", "max" : [197], "min" : [0]}, {"bufferView" : 2, "byteOffset" : 0, "componentType" : 5126, "count" : 198, "type" : "VEC3", "max" : [17.171934127807617, 37.64891052246094, 32.63560485839844], "min" : [-17.171934127807617, -32.64725112915039, -30.973602294921875], "name" : "POSITION"}, {"bufferView" : 2, "byteOffset" : 12, "componentType" : 5126, "count" : 198, "type" : "VEC3", "max" : [1.0000044107437134, 1.0000042915344238, 1.0000042915344238], "min" : [-1.0000042915344238, -1.0000042915344238, -1.0000042915344238], "name" : "NORMAL"}, {"bufferView" : 2, "byteOffset" : 24, "componentType" : 5126, "count" : 198, "type" : "VEC2", "max" : [0.9980079531669617, -0.001889485283754766], "min" : [0.001992008648812771, -0.9466471076011658], "name" : "TEXCOORD_0"}, {"bufferView" : 0, "byteOffset" : 432, "componentType" : 5123, "count" : 294, "type" : "SCALAR", "max" : [293], "min" : [0]}, {"bufferView" : 3, "byteOffset" : 0, "componentType" : 5126, "count" : 294, "type" : "VEC3", "max" : [18.17815589904785, 39.3343391418457, 32.63560485839844], "min" : [-18.17815589904785, -32.64725112915039, -32.3458366394043], "name" : "POSITION"}, {"bufferView" : 3, "byteOffset" : 12, "componentType" : 5126, "count" : 294, "type" : "VEC3", "max" : [1.0000044107437134, 1.0000044107437134, 1.0000042915344238], "min" : [-1.0000044107437134, -1.0000044107437134, -1.0000042915344238], "name" : "NORMAL"}, {"bufferView" : 3, "byteOffset" : 24, "componentType" : 5126, "count" : 294, "type" : "VEC2", "max" : [0.9956835508346558, -0.001889485283754766], "min" : [0.001992008648812771, -0.9317025542259216], "name" : "TEXCOORD_0"}, {"bufferView" : 0, "byteOffset" : 1020, "componentType" : 5123, "count" : 78, "type" : "SCALAR", "max" : [77], "min" : [0]}, {"bufferView" : 4, "byteOffset" : 0, "componentType" : 5126, "count" : 78, "type" : "VEC3", "max" : [17.171934127807617, 35.25193405151367, 16.88531494140625], "min" : [-17.171934127807617, -30.302661895751953, 15.86463451385498], "name" : "POSITION"}, {"bufferView" : 4, "byteOffset" : 12, "componentType" : 5126, "count" : 78, "type" : "VEC3", "max" : [0.1764223873615265, 1.0000044107437134, 1.0000044107437134], "min" : [-1.0000042915344238, -0.9926817417144775, -1.0000042915344238], "name" : "NORMAL"}, {"bufferView" : 4, "byteOffset" : 24, "componentType" : 5126, "count" : 78, "type" : "VEC2", "max" : [0.8831803202629089, -0.054243773221969604], "min" : [0.1837116926908493, -0.9195279479026794], "name" : "TEXCOORD_0"}, {"bufferView" : 0, "byteOffset" : 1176, "componentType" : 5123, "count" : 72, "type" : "SCALAR", "max" : [71], "min" : [0]}, {"bufferView" : 5, "byteOffset" : 0, "componentType" : 5126, "count" : 72, "type" : "VEC3", "max" : [18.17815589904785, 39.3343391418457, 17.236888885498047], "min" : [-18.17815589904785, 3.7933480739593506, -32.3458366394043], "name" : "POSITION"}, {"bufferView" : 5, "byteOffset" : 12, "componentType" : 5126, "count" : 72, "type" : "VEC3", "max" : [0.24001987278461456, 1.0000042915344238, 0.1783875972032547], "min" : [-0.216439351439476, -0.9870474338531494, -0.17900073528289795], "name" : "NORMAL"}, {"bufferView" : 5, "byteOffset" : 24, "componentType" : 5126, "count" : 72, "type" : "VEC2", "max" : [0.9980080127716064, -0.30799615383148193], "min" : [0.41486766934394836, -0.5948325991630554], "name" : "TEXCOORD_0"}], "asset" : {"generator" : "Aspose.3D 23.9.0", "version" : "2.0"}, "buffers" : [{"uri" : "data:application/octet-stream;base64,", "byteLength" : 22464}], "bufferViews" : [{"buffer" : 0, "byteOffset" : 0, "byteLength" : 1320, "target" : 34963}, {"buffer" : 0, "byteOffset" : 1324, "byteLength" : 576, "byteStride" : 32, "target" : 34962}, {"buffer" : 0, "byteOffset" : 1904, "byteLength" : 6336, "byteStride" : 32, "target" : 34962}, {"buffer" : 0, "byteOffset" : 8244, "byteLength" : 9408, "byteStride" : 32, "target" : 34962}, {"buffer" : 0, "byteOffset" : 17656, "byteLength" : 2496, "byteStride" : 32, "target" : 34962}, {"buffer" : 0, "byteOffset" : 20156, "byteLength" : 2304, "byteStride" : 32, "target" : 34962}], "images" : [{}], "materials" : [{"name" : "verde9escuro_", "pbrMetallicRoughness" : {"baseColorFactor" : [0.12340998649597168, 0.6019999980926514, 0.5282811522483826, 1], "metallicFactor" : 0, "roughnessFactor" : 0}, "emissiveFactor" : [0, 0, 0], "alphaMode" : "OPAQUE", "doubleSided" : false}, {"name" : "Rosa", "pbrMetallicRoughness" : {"baseColorFactor" : [0.871999979019165, 0.5983999967575073, 0.5983999967575073, 1], "metallicFactor" : 0, "roughnessFactor" : 0}, "emissiveFactor" : [0, 0, 0], "alphaMode" : "OPAQUE", "doubleSided" : false}, {"name" : "lambert2", "pbrMetallicRoughness" : {"baseColorFactor" : [0.0697999969124794, 0.2046000063419342, 0.25429999828338623, 1], "metallicFactor" : 0, "roughnessFactor" : 0}, "emissiveFactor" : [0, 0, 0], "alphaMode" : "OPAQUE", "doubleSided" : false}, {"name" : "lambert3", "pbrMetallicRoughness" : {"baseColorFactor" : [1, 1, 1, 1], "baseColorTexture" : {"index" : 0, "texCoord" : 0}, "metallicFactor" : 0, "roughnessFactor" : 0}, "emissiveFactor" : [0, 0, 0], "alphaMode" : "OPAQUE", "doubleSided" : false}, {"name" : "verde", "pbrMetallicRoughness" : {"baseColorFactor" : [0.07330400496721268, 0.18700000643730164, 0.0864226371049881, 1], "metallicFactor" : 0, "roughnessFactor" : 0}, "emissiveFactor" : [0, 0, 0], "alphaMode" : "OPAQUE", "doubleSided" : false}], "meshes" : [{"primitives" : [{"attributes" : {"POSITION" : 1, "NORMAL" : 2, "TEXCOORD_0" : 3}, "indices" : 0, "material" : 0, "mode" : 4}, {"attributes" : {"POSITION" : 5, "NORMAL" : 6, "TEXCOORD_0" : 7}, "indices" : 4, "material" : 1, "mode" : 4}, {"attributes" : {"POSITION" : 9, "NORMAL" : 10, "TEXCOORD_0" : 11}, "indices" : 8, "material" : 2, "mode" : 4}, {"attributes" : {"POSITION" : 13, "NORMAL" : 14, "TEXCOORD_0" : 15}, "indices" : 12, "material" : 3, "mode" : 4}, {"attributes" : {"POSITION" : 17, "NORMAL" : 18, "TEXCOORD_0" : 19}, "indices" : 16, "material" : 4, "mode" : 4}], "name" : ""}], "nodes" : [{"matrix" : [6.35635638674976, 0, 0, 0, 0, 6.35635638674976, 0, 0, 0, 0, 6.35635638674976, 0, 0, 2.360260009765625, 0, 1], "mesh" : 0, "name" : "pCube1"}], "samplers" : [{"magFilter" : 9729, "minFilter" : 9729, "wrapS" : 10497, "wrapT" : 10497}], "scene" : 0, "scenes" : [{"nodes" : [0]}], "textures" : [{"sampler" : 0, "source" : 0, "name" : "file1"}]}